<svg width="70" height="70" viewBox="0 0 70 70" fill="none" xmlns="http://www.w3.org/2000/svg">
<path d="M65.702 28.5425L60.914 14.1785C59.4825 9.884 55.482 7 50.9565 7H19.0435C14.518 7 10.5175 9.884 9.086 14.1785L4.298 28.5425C1.7745 29.5995 0 32.0915 0 35V52.5C0 55.083 1.414 57.316 3.5 58.5305V62.6395V66.5C3.5 68.4355 5.0645 70 7 70H10.5C12.4355 70 14 68.4355 14 66.5V59.5H56V66.5C56 68.4355 57.5645 70 59.5 70H63C64.9355 70 66.5 68.4355 66.5 66.5V58.5305C68.586 57.316 70 55.0865 70 52.5V35C70 32.0915 68.2255 29.5995 65.702 28.5425ZM19.0435 14H50.953C52.4615 14 53.7985 14.959 54.2745 16.394L58.1455 28H55.3665H14.6335H11.8545L15.722 16.394C16.2015 14.959 17.5385 14 19.0435 14ZM12.25 49C9.352 49 7 46.648 7 43.75C7 40.852 9.352 38.5 12.25 38.5C15.148 38.5 17.5 40.852 17.5 43.75C17.5 46.648 15.148 49 12.25 49ZM57.75 49C54.852 49 52.5 46.648 52.5 43.75C52.5 40.852 54.852 38.5 57.75 38.5C60.648 38.5 63 40.852 63 43.75C63 46.648 60.648 49 57.75 49Z" fill="#55CC88"/>
<path d="M35.1287 38.8816L35.3931 37.6686H34.1517H24.284C24.2682 37.6559 24.2405 37.6271 24.2032 37.5673C24.1018 37.4044 24 37.0972 24 36.6595C24 36.2049 24.1181 35.7623 24.3792 35.1908L40.2722 1.66233C40.4305 1.32828 40.5708 1.15366 40.6597 1.06702C40.7176 1.16086 40.7926 1.32785 40.8419 1.59684C40.9135 1.98832 40.9151 2.52535 40.7726 3.17726L35.5381 27.1093L35.2726 28.323H36.515H46.3891C46.405 28.3376 46.431 28.3674 46.4652 28.4239C46.5684 28.5946 46.6667 28.9071 46.6667 29.3322C46.6667 29.8378 46.5541 30.2815 46.3098 30.7906L46.3077 30.7951L30.4139 64.3546C30.4136 64.3554 30.4132 64.3561 30.4128 64.3569C30.2532 64.6891 30.1125 64.8584 30.0254 64.9401C29.9658 64.8477 29.8861 64.6773 29.8352 64.3968C29.7644 64.0063 29.7644 63.4705 29.9105 62.8197L29.9118 62.8138L35.1287 38.8816ZM24.2993 37.6774C24.2992 37.6781 24.2955 37.677 24.2887 37.6721C24.2959 37.6742 24.2994 37.6767 24.2993 37.6774ZM46.371 28.3105C46.3711 28.3098 46.3748 28.3112 46.3816 28.3166C46.3744 28.3139 46.3709 28.3112 46.371 28.3105Z" fill="#F7CE00" stroke="white" stroke-width="2"/>
</svg>
