<svg width="80" height="34" viewBox="0 0 352 150" fill="none" xmlns="http://www.w3.org/2000/svg">
<path d="M66.8 53.4V31.1H80.2V97.5H66.8V64.6H52.1V53.4H66.8ZM31.3 69.4C30.7667 69.4 30.3 69.6 29.9 70C27.9 72.6667 25.5333 75.4 22.8 78.2C20.1333 80.9333 16.8667 84.0333 13 87.5L3 79C10 73.5333 15.1667 68.3667 18.5 63.5C21.8333 58.6333 23.6333 53.5667 23.9 48.3H6.5V37.2H54.5V48.3H37.3C37.2333 54.0333 35.9 59.4333 33.3 64.5L33.9 64.8L36.6 62.9C37.6667 62.0333 38.8333 61.6 40.1 61.6C41.2333 61.6 42.4667 62.1 43.8 63.1L58.7 76.7L48.7 85.4L32.9 70C32.4333 69.6 31.9 69.4 31.3 69.4ZM81.9 110.7V121.7H30.3C24.6333 121.7 21.8 118.867 21.8 113.2V90.7H35.3V110.7H81.9ZM155.56 31.1H169.06V119.9H155.56V31.1ZM94.7602 91.8C103.293 87.5333 109.793 83.6 114.26 80C118.727 76.4 121.86 72.5667 123.66 68.5C125.527 64.3667 126.46 59.2667 126.46 53.2V49.4H97.8602V38.1H140.06V53.2C140.06 60.8667 138.86 67.4 136.46 72.8C134.127 78.2 130.293 83.1667 124.96 87.7C119.627 92.1667 112.16 96.9667 102.56 102.1L94.7602 91.8ZM266.62 74.5H253.32V119.9H239.92V31.1H253.32V63.3H266.62V74.5ZM222.32 45.8H194.32V34.7H222.32V45.8ZM217.02 77.5C218.42 77.5 219.654 78 220.72 79L236.22 94.3L226.42 102.7L210.02 85.6C209.62 85.2 209.12 85 208.52 85C207.987 85 207.52 85.2 207.12 85.6C205.187 88.5333 202.82 91.5 200.02 94.5C197.22 97.4333 193.854 100.7 189.92 104.3L180.12 96.1C187.387 90.2333 192.687 84.6667 196.02 79.4C199.42 74.1333 201.22 68.5667 201.42 62.7H183.72V51.6H232.72V62.7H214.52C214.454 69.1667 213.054 75.0667 210.32 80.4L210.82 80.8L213.52 78.7C214.654 77.9 215.82 77.5 217.02 77.5Z" fill="#55CC88"/>
<path d="M349.564 73.3665V72.3665H348.564H323.061H322.061V73.3665V85.9614V86.9614H323.061H330.332V102.656C329.719 103.243 328.883 103.871 327.802 104.534C326.619 105.259 324.987 105.916 322.87 106.487C320.85 107.001 318.248 107.269 315.04 107.269C311.573 107.269 308.504 106.645 305.814 105.42C303.17 104.156 300.939 102.322 299.114 99.904C297.323 97.434 295.93 94.3799 294.953 90.7184C293.977 87.0177 293.482 82.7618 293.482 77.9408V71.7999C293.482 67.0145 293.916 62.7922 294.771 59.1243C295.668 55.4564 296.962 52.4227 298.632 49.9971C300.299 47.5759 302.349 45.7478 304.784 44.4912C307.211 43.2385 310.036 42.5974 313.286 42.5974H314.314L314.285 41.5698L313.909 27.9724L313.883 27H312.91C307.03 27 301.674 28.0016 296.858 30.023L296.855 30.0242C292.081 32.0454 287.97 34.9945 284.529 38.8652L284.529 38.8652L284.525 38.8699C281.124 42.7439 278.515 47.4612 276.682 53.001L276.682 53.001L276.68 53.0076C274.887 58.5568 274 64.8671 274 71.9253V77.9408C274 85.0053 274.952 91.3226 276.875 96.8781L277.82 96.551L276.875 96.8781C278.794 102.423 281.534 107.142 285.105 111.014L285.84 110.336L285.105 111.014C288.673 114.883 292.931 117.829 297.869 119.847L297.876 119.85C302.812 121.824 308.245 122.803 314.163 122.803C320.911 122.803 326.657 122.087 331.377 120.628L331.385 120.626C336.041 119.144 339.86 117.372 342.809 115.291C345.728 113.26 347.928 111.335 349.352 109.511L349.564 109.239V108.895V73.3665Z" fill="#F7CE00" stroke="white" stroke-width="2"/>
<path d="M329.952 88.5125L330.232 87.2893H328.977H313.883C313.737 87.2893 313.54 87.2208 313.337 86.91C313.126 86.588 312.959 86.0604 312.959 85.3703C312.959 84.6313 313.163 83.9275 313.578 83.0627L337.358 35.3909C337.744 35.215 338.156 35.245 338.53 35.455C338.951 35.6915 339.375 36.1956 339.551 37.0119L331.609 71.5811L331.328 72.805H332.584H347.705C347.834 72.805 348.026 72.8665 348.23 73.1889C348.441 73.5202 348.602 74.0532 348.602 74.7242C348.602 75.5284 348.412 76.2337 348.015 77.0216L348.012 77.0262L323.756 125.788C323.756 125.788 323.755 125.789 323.755 125.79C323.356 126.582 322.98 126.878 322.776 126.965C322.639 127.023 322.545 127.014 322.409 126.899C322.231 126.746 321.993 126.387 321.871 125.743C321.751 125.114 321.756 124.281 321.989 123.291L321.991 123.284L329.952 88.5125Z" fill="#F7CE00" stroke="white" stroke-width="2"/>
<path d="M314.012 27H312.984L313.013 28.0276L313.389 41.6251L313.415 42.5974H314.388C318.294 42.5974 321.37 43.2702 323.681 44.5415L323.69 44.5462L323.699 44.5508C326.083 45.8016 327.904 47.5483 329.184 49.7992L329.184 49.7992L329.188 49.8057C330.493 52.06 331.377 54.7126 331.821 57.7819L331.945 58.6386H332.811H349.604H350.726L350.597 57.5234C349.914 51.6346 348.203 46.3984 345.448 41.834C342.67 37.1911 338.681 33.5577 333.516 30.9317C328.36 28.2893 321.841 27 314.012 27Z" fill="#F7CE00" stroke="white" stroke-width="2"/>
<path d="M312.472 28H311.959V41.6029H312.472H312.986H313.499H314.012H314.526L314.012 28H313.499H312.986H312.472Z" fill="#F7CE00"/>
</svg>
