<?xml version="1.0" standalone="no"?>
<!DOCTYPE svg PUBLIC "-//W3C//DTD SVG 20010904//EN"
 "http://www.w3.org/TR/2001/REC-SVG-20010904/DTD/svg10.dtd">
<svg version="1.0" xmlns="http://www.w3.org/2000/svg"
 width="280.000000pt" height="280.000000pt" viewBox="0 0 280.000000 280.000000"
 preserveAspectRatio="xMidYMid meet">
<metadata>
Created by potrace 1.14, written by Peter Selinger 2001-2017
</metadata>
<g transform="translate(0.000000,280.000000) scale(0.100000,-0.100000)"
fill="#000000" stroke="none">
<path d="M667 2509 c-114 -27 -224 -113 -276 -217 -15 -31 -72 -188 -125 -348
-90 -272 -99 -293 -125 -304 -38 -15 -84 -65 -113 -120 l-23 -45 0 -425 0
-425 27 -52 c15 -28 46 -66 68 -84 l40 -32 0 -176 c0 -197 7 -221 72 -261 48
-29 228 -29 276 0 64 39 72 66 72 243 l0 157 313 0 312 0 88 408 c48 224 88
410 87 415 0 4 -89 7 -198 7 -235 0 -237 1 -237 82 1 45 11 75 68 192 37 76
67 143 67 148 0 4 -130 8 -290 8 -159 0 -290 3 -290 8 0 25 163 488 177 504
42 46 56 48 373 48 l301 0 65 135 c35 74 64 137 64 140 0 9 -753 4 -793 -6z
m-99 -1265 c174 -72 174 -316 0 -388 -133 -56 -287 47 -288 192 -1 147 154
253 288 196z"/>
<path d="M1636 2503 c-6 -20 -56 -250 -56 -258 0 -3 110 -5 245 -5 259 0 277
-3 318 -48 14 -16 177 -479 177 -504 0 -5 -94 -8 -208 -8 l-208 0 0 -47 c1
-43 -30 -113 -272 -623 -149 -316 -272 -578 -272 -582 0 -5 198 -8 440 -8
l440 0 0 -157 c0 -177 8 -204 72 -243 48 -29 228 -29 276 0 65 40 72 64 72
261 l0 176 38 30 c20 17 51 54 67 84 l30 54 0 425 0 425 -27 51 c-15 28 -42
63 -60 78 -18 15 -45 37 -60 49 -21 18 -43 74 -118 302 -104 313 -132 378
-194 439 -107 107 -177 126 -472 126 -203 0 -223 -2 -228 -17z m752 -1259
c174 -72 174 -316 0 -388 -133 -56 -287 47 -288 192 -1 147 154 253 288 196z"/>
<path d="M1267 1908 l-267 -563 232 -5 233 -5 -4 -25 c-1 -14 -43 -207 -91
-430 -49 -222 -88 -406 -86 -407 3 -3 528 1108 534 1130 4 16 -12 17 -227 17
-127 0 -231 4 -231 8 0 4 41 194 90 421 50 228 89 415 87 417 -2 3 -124 -249
-270 -558z"/>
</g>
</svg>
